# xmcd
#
# Track frame offsets: 
#        150
#        15920
#        29726
#        45836
#        62008
#        77301
#        93683
#        110301
#        122443
#        136077
#        148819
#        168589
#        187264
#
# Disc length: 2764 seconds
#
# Revision: 0
# Processed by: cddbd v1.5.1PL0 Copyright (c) Steve Scherf et al.
# Submitted via: ExactAudioCopy v0.95b3
#
DISCID=a50aca0d
DTITLE=Jackie Cola - kein Zurück mehr
DYEAR=2005
DGENRE=Rock and Roll
TTITLE0=Kein Zurück
TTITLE1=Auf Ex
TTITLE2=Alles was ich wollte
TTITLE3=Am Ende
TTITLE4=Wir (hatten)
TTITLE5=Ihr seid
TTITLE6=Vorbei
TTITLE7=Ein Hoch auf alle traurigen Lieder
TTITLE8=Noch lange nicht genug
TTITLE9=Was kann ich denn dafür?
TTITLE10=Was für Zeiten
TTITLE11=Komischer Typ
TTITLE12=Ex-Rockstar
EXTD=
EXTT0=
EXTT1=
EXTT2=
EXTT3=
EXTT4=
EXTT5=
EXTT6=
EXTT7=
EXTT8=
EXTT9=
EXTT10=
EXTT11=
EXTT12=
PLAYORDER=
